/* XPM */
static char * ffmpegyag_xpm[] = {
"32 32 370 2",
"  	c None",
". 	c #FFFFFF",
"+ 	c #33A9AE",
"@ 	c #36ADAF",
"# 	c #39AFAF",
"$ 	c #3CB2B0",
"% 	c #3FB5B1",
"& 	c #41B8B1",
"* 	c #44BBB2",
"= 	c #48BDB2",
"- 	c #4BC1B3",
"; 	c #4DC4B3",
"> 	c #50C6B5",
", 	c #53CAB4",
"' 	c #57CDB5",
") 	c #59CFB6",
"! 	c #5DD2B6",
"~ 	c #5FD6B7",
"{ 	c #62D8B7",
"] 	c #65DBB8",
"^ 	c #68DDB8",
"/ 	c #6BE1BA",
"( 	c #2AA1AD",
"_ 	c #2EA4AD",
": 	c #30A6AD",
"< 	c #33AAAF",
"[ 	c #36ACAF",
"} 	c #3FB5B0",
"| 	c #42B8B2",
"1 	c #45BBB2",
"2 	c #48BDB3",
"3 	c #4AC1B3",
"4 	c #4EC4B4",
"5 	c #51C7B4",
"6 	c #53C9B4",
"7 	c #57CCB6",
"8 	c #5CD2B6",
"9 	c #60D5B7",
"0 	c #62D8B8",
"a 	c #65DBB9",
"b 	c #68DEB9",
"c 	c #6BE1B9",
"d 	c #6EE4BA",
"e 	c #259BAB",
"f 	c #279DAC",
"g 	c #2DA4AD",
"h 	c #31A7AE",
"i 	c #33AAAE",
"j 	c #37ADAF",
"k 	c #39AFB0",
"l 	c #42B8B1",
"m 	c #48BEB2",
"n 	c #54CAB5",
"o 	c #56CDB5",
"p 	c #5AD0B5",
"q 	c #5CD2B7",
"r 	c #5FD5B7",
"s 	c #62D9B7",
"t 	c #6EE3BA",
"u 	c #1F95AA",
"v 	c #2297AB",
"w 	c #249BAB",
"x 	c #279EAC",
"y 	c #2AA1AC",
"z 	c #30A7AE",
"A 	c #34AAAE",
"B 	c #36ADAE",
"C 	c #3CB3B0",
"D 	c #47BEB2",
"E 	c #4EC4B3",
"F 	c #54C9B5",
"G 	c #5AD0B6",
"H 	c #1C92AA",
"I 	c #2298AB",
"J 	c #5DB5C0",
"K 	c #7FC6CD",
"L 	c #81C8CD",
"M 	c #82CACD",
"N 	c #84CCCE",
"O 	c #86CDCF",
"P 	c #88CFCF",
"Q 	c #73C8C6",
"R 	c #78CFC6",
"S 	c #94DBD2",
"T 	c #96DDD2",
"U 	c #97DFD2",
"V 	c #9AE0D2",
"W 	c #9CE2D3",
"X 	c #9DE4D3",
"Y 	c #87E0C9",
"Z 	c #63D9B8",
"` 	c #65DCB9",
" .	c #6CE1B9",
"..	c #168CA8",
"+.	c #1990A8",
"@.	c #1F96AA",
"#.	c #61B5C3",
"$.	c #85CECD",
"%.	c #B8E5E1",
"&.	c #8DE1CB",
"*.	c #1389A7",
"=.	c #198FA9",
"-.	c #70BBC9",
";.	c #8CD1D1",
">.	c #A3DBD9",
",.	c #91E1CD",
"'.	c #69DEB9",
").	c #1087A7",
"!.	c #138AA7",
"~.	c #1E93AA",
"{.	c #7EC2CE",
"].	c #A6D5DD",
"^.	c #A7D7DD",
"/.	c #DEF1F1",
"(.	c #3EAFB1",
"_.	c #9DD8D7",
":.	c #B7E5E0",
"<.	c #CBEFE8",
"[.	c #5CD0B7",
"}.	c #5CD3B6",
"|.	c #60D6B7",
"1.	c #0D84A6",
"2.	c #1389A8",
"3.	c #1C92A9",
"4.	c #9AD0D8",
"5.	c #C7E7E9",
"6.	c #38AAB0",
"7.	c #99D4D6",
"8.	c #C6E9E8",
"9.	c #46BAB2",
"0.	c #A3DDD9",
"a.	c #CBEEE8",
"b.	c #58CBB5",
"c.	c #5CD3B7",
"d.	c #63D9B7",
"e.	c #0A80A6",
"f.	c #0D83A6",
"g.	c #1186A7",
"h.	c #1489A8",
"i.	c #9DD0DA",
"j.	c #BFE2E6",
"k.	c #30A3AF",
"l.	c #95D1D5",
"m.	c #C5E7E8",
"n.	c #41B4B1",
"o.	c #A1DBD9",
"p.	c #CAECE8",
"q.	c #52C5B5",
"r.	c #57CCB5",
"s.	c #59D0B6",
"t.	c #5DD2B7",
"u.	c #077EA6",
"v.	c #0B81A6",
"w.	c #A0D0DB",
"x.	c #B9DEE4",
"y.	c #2A9DAD",
"z.	c #90CDD4",
"A.	c #C4E6E7",
"B.	c #3BAEB0",
"C.	c #9DD7D7",
"D.	c #C9EBE8",
"E.	c #4CBFB3",
"F.	c #74CFC4",
"G.	c #76D1C5",
"H.	c #057BA5",
"I.	c #087EA6",
"J.	c #0E84A6",
"K.	c #5FAEC3",
"L.	c #B1D9E2",
"M.	c #2197AB",
"N.	c #8CC9D3",
"O.	c #C3E5E7",
"P.	c #36A9AF",
"Q.	c #C8E9E8",
"R.	c #B7E5E1",
"S.	c #81D5C9",
"T.	c #54CAB4",
"U.	c #57CDB6",
"V.	c #0278A5",
"W.	c #047CA5",
"X.	c #087EA5",
"Y.	c #0A81A6",
"Z.	c #7EBDCF",
"`.	c #1B91AA",
" +	c #88C6D2",
".+	c #C3E4E7",
"++	c #31A4AE",
"@+	c #95D0D5",
"#+	c #C7E8E8",
"$+	c #41B5B2",
"%+	c #A5DCDA",
"&+	c #A9E1DA",
"*+	c #50C7B4",
"=+	c #0077A4",
"-+	c #0278A4",
";+	c #7DBCCF",
">+	c #91C8D6",
",+	c #82C2D0",
"'+	c #C2E2E7",
")+	c #2C9EAD",
"!+	c #91CDD4",
"~+	c #3CAFB0",
"{+	c #A2DADA",
"]+	c #AAE1DB",
"^+	c #51C7B5",
"/+	c #0076A3",
"(+	c #0279A4",
"_+	c #057BA4",
":+	c #7CBACF",
"<+	c #FDFEFE",
"[+	c #C1E1E7",
"}+	c #2799AD",
"|+	c #35AAB0",
"1+	c #A0D7D9",
"2+	c #A7DFDA",
"3+	c #49BEB3",
"4+	c #4FC4B3",
"5+	c #51C8B4",
"6+	c #78B8CE",
"7+	c #C1E1E8",
"8+	c #2294AC",
"9+	c #9DD4D8",
"0+	c #A6DDDA",
"a+	c #46BBB2",
"b+	c #49BFB2",
"c+	c #4BC2B3",
"d+	c #6AB0C9",
"e+	c #C2E0E8",
"f+	c #1E8FAA",
"g+	c #85C3D1",
"h+	c #2C9FAD",
"i+	c #9AD1D8",
"j+	c #BFE4E5",
"k+	c #99D5D6",
"l+	c #A4DCDA",
"m+	c #43B9B2",
"n+	c #45BCB2",
"o+	c #0076A4",
"p+	c #0077A3",
"q+	c #6DB0CA",
"r+	c #C4E1E9",
"s+	c #1788A9",
"t+	c #81BFD0",
"u+	c #C0E1E7",
"v+	c #97CFD7",
"w+	c #BEE2E5",
"x+	c #35A9AF",
"y+	c #40B6B1",
"z+	c #43B8B1",
"A+	c #48BFB3",
"B+	c #479CBC",
"C+	c #D3E8EF",
"D+	c #1083A8",
"E+	c #7ABACE",
"F+	c #BFE0E7",
"G+	c #2294AB",
"H+	c #95CCD6",
"I+	c #BCE0E5",
"J+	c #2FA4AD",
"K+	c #97D2D6",
"L+	c #7ACACA",
"M+	c #3FB6B1",
"N+	c #46BCB1",
"O+	c #0177A4",
"P+	c #61AAC6",
"Q+	c #77B5CD",
"R+	c #0C7EA7",
"S+	c #77B7CE",
"T+	c #1C8EAA",
"U+	c #92C9D6",
"V+	c #BADFE4",
"W+	c #2A9EAD",
"X+	c #94CFD5",
"Y+	c #C3E6E7",
"Z+	c #3AAEB0",
"`+	c #3AB0B0",
" @	c #3DB3B0",
".@	c #43B9B1",
"+@	c #76B5CE",
"@@	c #C0DEE8",
"#@	c #1788AA",
"$@	c #8FC7D5",
"%@	c #B8DDE4",
"&@	c #2498AC",
"*@	c #8BC9D2",
"=@	c #C2E4E7",
"-@	c #3AB0AF",
";@	c #3DB3B1",
">@	c #40B6B0",
",@	c #72B3CC",
"'@	c #C1DEE8",
")@	c #1184A8",
"!@	c #8EC5D5",
"~@	c #B6DBE4",
"{@	c #1F92AB",
"]@	c #85C4D0",
"^@	c #C2E3E7",
"/@	c #2FA3AE",
"(@	c #31A8AE",
"_@	c #34ABAE",
":@	c #77B6CD",
"<@	c #71B3CB",
"[@	c #EEF6F8",
"}@	c #B5DAE3",
"|@	c #198DA9",
"1@	c #80C1D0",
"2@	c #83C6CF",
"3@	c #7EC5CD",
"4@	c #60B8C1",
"5@	c #2EA5AD",
"6@	c #34ABAF",
"7@	c #3693B6",
"8@	c #B4D8E3",
"9@	c #1386A9",
"0@	c #43A1B9",
"a@	c #68BCC4",
"b@	c #37AEAE",
"c@	c #479CBD",
"d@	c #B1D6E2",
"e@	c #0D82A8",
"f@	c #0C82A6",
"g@	c #51A6BE",
"h@	c #77C1CA",
"i@	c #2BA1AC",
"j@	c #34AAAF",
"k@	c #62ABC6",
"l@	c #99C8DA",
"m@	c #9FCBDC",
"n@	c #71B3CC",
"o@	c #087CA6",
"p@	c #067CA5",
"q@	c #087FA6",
"r@	c #6AB3C8",
"s@	c #9FCFDB",
"t@	c #A5D2DD",
"u@	c #A2D1DC",
"v@	c #A3D3DC",
"w@	c #A4D3DD",
"x@	c #A5D5DD",
"y@	c #81C4CE",
"z@	c #279CAC",
"A@	c #299FAB",
"B@	c #0379A4",
"C@	c #057CA5",
"D@	c #087FA5",
"E@	c #0E85A6",
"F@	c #1187A7",
"G@	c #148BA8",
"H@	c #178EA8",
"I@	c #1A90A9",
"J@	c #1D94A9",
"K@	c #2096AB",
"L@	c #2399AB",
"M@	c #269CAB",
"N@	c #289FAC",
"O@	c #2BA2AD",
"P@	c #097FA6",
"Q@	c #0E84A7",
"R@	c #1188A7",
"S@	c #148AA7",
"T@	c #178DA8",
"U@	c #1D93AA",
"V@	c #1F96AB",
"W@	c #2299AA",
"X@	c #0B82A6",
"Y@	c #148AA8",
"Z@	c #178DA9",
"`@	c #1C93AA",
" #	c #0379A5",
".#	c #178EA9",
"          . . . . . . . . . . . . . . . . . . . . . .           ",
"      . . . + @ # $ % & * = - ; > , ' ) ! ~ { ] ^ / . . .       ",
"    . . ( _ : < [ # $ } | 1 2 3 4 5 6 7 ) 8 9 0 a b c d . .     ",
"  . . e f ( g h i j k $ } l 1 m - ; 5 n o p q r s ] b / t . .   ",
"  . u v w x y _ z A B k C } l 1 D - E 5 F o G 8 ~ { a b / d .   ",
". . H u I w J K L M N O P Q % l 1 m R S T U V W X Y Z ` b  .. . ",
". ..+.H @.#.. . . . . . . . $.% l %.. . . . . . . . &.s ] b / . ",
". *...=.H -.. . . . . . . . ;.$ >.. . . . . . . . . ,.9 0 ] '.. ",
". ).!...=.~.{.].^.. . . . /.(._.. . . . :.. . . . <.[.}.|.0 a . ",
". 1.).2...+.3.u 4.. . . 5.6.7.. . . 8.9.0.. . . a.b.o ) c.|.d.. ",
". e.f.g.h...=.i.. . . j.k.l.. . . m.n.o.. . . p.q.5 n r.s.t.|.. ",
". u.v.1.).2.w.. . . x.y.z.. . . A.B.C.. . . D.E.F.G.5 n ' G 8 . ",
". H.I.v.J.K.. . . L.M.N.. . . O.P.7.. . . Q.9.R.. . S.5 T.U.G . ",
". V.W.X.Y.Z.. . . `. +. . . .+++@+. . . #+$+%+. . . &+E *+n U.. ",
". =+-+H.I.;+. . >+,+. . . '+)+!+. . . m.~+{+. . . . ]+- E ^+n . ",
". /+=+(+_+:+. . <+. . . [+}+N.. . . O.|+1+. . . . . 2+3+- 4+5+. ",
". =+=+=+-+6+. . . . . 7+8+ +. . . .+++9+. . . . . . 0+a+b+c+4 . ",
". =+=+=+=+d+. . . . e+f+g+. . . '+h+i+. . . j+k+. . l+m+n+m c+. ",
". o+o+p+=+q+. . . r+s+t+. . . u+}+v+. . . w+x+<+. . >.y+z+n+A+. ",
". =+=+p+=+B+. . C+D+E+. . . F+G+H+. . . I+J+K+. . . L+C M+z+N+. ",
". o+=+o+=+O+P+Q+R+S+. . . e+T+U+. . . V+W+X+. . . Y+Z+`+ @M+.@. ",
". p+=+=+o+/+=+/++@. . . @@#@$@. . . %@&@*@. . . =@x+A @ -@;@>@. ",
". /+o+=+/+o+p+,@. . . '@)@!@. . . ~@{@]@. . . ^@/@_ (@_@j -@ @. ",
". o+p+=+=+/+:@. . . . <@[@. . . }@|@1@. . . . 2@3@4@5@h 6@j -@. ",
". p+=+o+o+7@. . . . . . . . . 8@9@0@. . . . . . . . a@J+(@_@b@. ",
". o+p+/+o+c@. . . . . . . . d@e@f@g@. . . . . . . . h@i@_ h j@. ",
". . =+o+p+O+k@l@m@l@l@l@l@n@o@p@q@v.r@s@t@u@v@w@x@y@z@A@i@5@. . ",
"  . o+o+/+/+=+=+o+p+=+=+=+p+p+B@C@D@v.E@F@G@H@I@J@K@L@M@N@O@.   ",
"  . . o+p+/+p+/+=+o+o+=+=+o+=+=+-+p@P@v.Q@R@S@T@I@U@V@W@M@. .   ",
"    . . /+/+o+o+=+=+=+=+=+o+=+/+=+(+C@P@X@Q@F@Y@Z@I@`@@.. .     ",
"      . . . =+=+=+=+=+=+o+o+=+o+/+/+ #C@P@v.E@R@S@.#. . .       ",
"          . . . . . . . . . . . . . . . . . . . . . .           "};
